<svg width="20" height="20" viewBox="0 0 20 20" fill="none" xmlns="http://www.w3.org/2000/svg">
    <path
        d="M6.81119 17.6995L8.76314 15.6995C8.0811 15.5514 7.43142 15.2813 6.84536 14.9023L6.81119 17.6995ZM13.189 2.30144L11.2376 4.30116C11.9196 4.44939 12.5693 4.71956 13.1554 5.09866L13.189 2.30144ZM4.30119 11.2375L2.30091 13.1889L5.09814 13.155C4.71914 12.5691 4.44915 11.9195 4.30119 11.2375ZM15.699 8.76338L17.6992 6.81144L14.902 6.8456C15.281 7.43164 15.551 8.08134 15.699 8.76338ZM5.09841 6.84533L2.30119 6.81116L4.30147 8.7631C4.44914 8.08097 4.71914 7.43122 5.09841 6.84533ZM14.9017 13.1553L17.699 13.1892L15.6987 11.2375C15.551 11.9197 15.281 12.5694 14.9017 13.1553ZM8.76314 4.30116L6.81119 2.30116L6.84536 5.09838C7.43142 4.71936 8.0811 4.44929 8.76314 4.30116ZM11.237 15.6995L13.189 17.6992L13.1548 14.9023C12.5687 15.2812 11.919 15.5512 11.237 15.6995ZM5.20897 13.3231L4.10703 15.8928L6.67703 14.7914C6.1042 14.3932 5.60705 13.896 5.20897 13.3231ZM14.7912 6.67782L15.8926 4.10783L13.3231 5.20921C13.896 5.60751 14.3931 6.10484 14.7912 6.67782ZM4.16675 10.0003C4.16675 9.64533 4.20369 9.29921 4.26453 8.96116L1.66675 10L4.26453 11.0389C4.20103 10.6963 4.16831 10.3488 4.16675 10.0003ZM18.3334 10.0003L15.7356 8.96116C15.7965 9.29921 15.8334 9.64533 15.8334 10.0003C15.8334 10.3556 15.7965 10.7017 15.7356 11.0395L18.3334 10.0003ZM6.67758 5.20894L4.10758 4.10755L5.20897 6.67755C5.6074 6.10467 6.10471 5.60737 6.67758 5.20894ZM13.3226 14.7914L15.8926 15.8928L14.7912 13.3231C14.3928 13.896 13.8955 14.3932 13.3226 14.7914ZM11.039 4.26477L10.0001 1.66699L8.96119 4.26477C9.29869 4.20394 9.6448 4.16699 10.0001 4.16699C10.3554 4.16699 10.7015 4.20394 11.039 4.26477ZM8.96119 15.7359L10.0001 18.3337L11.039 15.7359C10.7015 15.7967 10.3554 15.8337 10.0001 15.8337C9.6448 15.8337 9.29869 15.7967 8.96119 15.7359Z"
        fill="var(--color-icon)" fillOpacity="0.24" />
    <path
        d="M10 15C12.7614 15 15 12.7614 15 10C15 7.23858 12.7614 5 10 5C7.23858 5 5 7.23858 5 10C5 12.7614 7.23858 15 10 15Z"
        fill="var(--color-icon)" fillOpacity="0.24" />
</svg>